# xmcd
#
# Track frame offsets: 
#        150
#        17962
#        40920
#
# Disc length: 848 seconds
#
# Revision: 0
# Processed by: cddbd v1.5.2PL0 Copyright (c) Steve Scherf et al.
# Submitted via: ExactAudioCopy v1.3
#
DISCID=1e034e03
DTITLE=Robbie Mychals - Can't Get Enuff Of U (Promo CDM)
DYEAR=1989
DGENRE=Funk
TTITLE0=Can't Get Enuff Of U (Single Mix)
TTITLE1=Can't Get Enuff Of U (12'' Mix)
TTITLE2=Can't Get Enuff Of U (12'' Instrumental)
EXTD=
EXTT0=
EXTT1=
EXTT2=
PLAYORDER=
